# xmcd CD database file
#
# Track frame offsets:
#	150
#	43712
#	67953
#	89067
#	115964
#	136409
#	153711
#	172618
#	194224
#	209864
#	227241
#	241350
#
# Disc length: 3511 seconds
#
# Revision: 0
# Processed by: cddbd v1.5.1PL2 Copyright (c) Steve Scherf et al.
# Submitted via: CDex 1.51
#
DISCID=b60db50c
DTITLE=Project Bigband Krems - project
DYEAR=1999
DGENRE=Jazz
TTITLE0=Computer
TTITLE1=Killer Joe
TTITLE2=Work Song
TTITLE3=Stolen Moments
TTITLE4=Harlem Nocturne
TTITLE5=My favorite things
TTITLE6=Autumn leaves
TTITLE7=Wave
TTITLE8=It don´t mean a thing
TTITLE9=Do nothing till you hear from me
TTITLE10=Satin Doll
TTITLE11=Sams Boogie
EXTD=YEAR: 1999
EXTT0=
EXTT1=
EXTT2=
EXTT3=
EXTT4=
EXTT5=
EXTT6=
EXTT7=
EXTT8=
EXTT9=
EXTT10=
EXTT11=
PLAYORDER=
